<svg xmlns="http://www.w3.org/2000/svg" width="960" height="270" viewBox="0 0 960 270" role="img" aria-label="Ganesh Kambli — AI Engineer at Flid AI, building LeapView">
<title>Ganesh Kambli — AI Engineer at Flid AI, building LeapView</title>
<defs><linearGradient id="warm"><stop stop-color="#f74c00"/><stop offset="1" stop-color="#fbbf24"/></linearGradient></defs>
<rect x="1" y="1" width="958" height="268" rx="22" fill="#fffaf5" stroke="#eaded3"/>
<g font-family="'Segoe UI',Arial,sans-serif" fill="#24292f"><path d="M600 16V264" stroke="#eaded3" opacity=".3"/><path d="M632 16V264" stroke="#eaded3" opacity=".3"/><path d="M664 16V264" stroke="#eaded3" opacity=".3"/><path d="M696 16V264" stroke="#eaded3" opacity=".3"/><path d="M728 16V264" stroke="#eaded3" opacity=".3"/><path d="M760 16V264" stroke="#eaded3" opacity=".3"/><path d="M792 16V264" stroke="#eaded3" opacity=".3"/><path d="M824 16V264" stroke="#eaded3" opacity=".3"/><path d="M856 16V264" stroke="#eaded3" opacity=".3"/><path d="M888 16V264" stroke="#eaded3" opacity=".3"/><path d="M920 16V264" stroke="#eaded3" opacity=".3"/><path d="M600 24H944" stroke="#eaded3" opacity=".3"/><path d="M600 56H944" stroke="#eaded3" opacity=".3"/><path d="M600 88H944" stroke="#eaded3" opacity=".3"/><path d="M600 120H944" stroke="#eaded3" opacity=".3"/><path d="M600 152H944" stroke="#eaded3" opacity=".3"/><path d="M600 184H944" stroke="#eaded3" opacity=".3"/><path d="M600 216H944" stroke="#eaded3" opacity=".3"/><path d="M600 248H944" stroke="#eaded3" opacity=".3"/><path d="M610 230L680 164L733 191L811 87L901 48" fill="none" stroke="url(#warm)" stroke-width="4"/><circle cx="610" cy="230" r="7" fill="#ff7a18" stroke="#fffaf5" stroke-width="3"/><circle cx="680" cy="164" r="7" fill="#ff7a18" stroke="#fffaf5" stroke-width="3"/><circle cx="733" cy="191" r="7" fill="#ff7a18" stroke="#fffaf5" stroke-width="3"/><circle cx="811" cy="87" r="7" fill="#ff7a18" stroke="#fffaf5" stroke-width="3"/><circle cx="901" cy="48" r="7" fill="#ff7a18" stroke="#fffaf5" stroke-width="3"/><text x="40" y="48" font-size="15" fill="#f07424" font-weight="700" letter-spacing="3">AI ENGINEER / FLID AI</text><text x="40" y="115" font-size="55" fill="#24292f" font-weight="750" >Ganesh Kambli</text><text x="42" y="158" font-size="22" fill="#596778" font-weight="400" >Building useful systems for data, code, and AI.</text><rect x="40" y="192" width="208" height="38" rx="19" fill="url(#warm)"/><text x="61" y="217" font-size="15" fill="#18120b" font-weight="700" >BUILDING LEAPVIEW</text><text x="269" y="217" font-size="17" fill="#596778" font-weight="400" >Go  /  DuckDB  /  Agent systems</text></g>
</svg>
